<svg id="logo" xmlns="http://www.w3.org/2000/svg" viewBox="0 0 950.51 683.03"><path d="M1435.19,322.43a75.23,75.23,0,0,0-2.7-16.39h0a122.8,122.8,0,0,0-9.75-24.12,188.14,188.14,0,0,0-13.62-22q-3.75-5.26-7.81-10.3a124.57,124.57,0,0,0-8.59-9.81,205.77,205.77,0,0,0-19.48-17,158.58,158.58,0,0,0-21.72-14.18,87.54,87.54,0,0,0-24.56-9.12c-8.67-1.67-18-1.33-26.45,2.27a42.61,42.61,0,0,0-11.4,7.19,50.49,50.49,0,0,0-4.73,4.75,37.07,37.07,0,0,0-3.93,5.61,57.48,57.48,0,0,0-5,12.32c-1.24,4.2-2.17,8.41-3.07,12.61-1.76,8.38-3.38,16.7-5.57,24.84a172.29,172.29,0,0,1-8.15,23.88c-1.65,3.86-3.47,7.66-5.43,11.37s-4,7.47-6.09,11.19c-4.13,7.43-8.41,14.81-12.54,22.32-2.06,3.76-4.08,7.57-5.94,11.48a78.18,78.18,0,0,0-4.81,12.27c-.3,1.09-.56,2.18-.78,3.32s-.38,2.2-.51,3.28c-.29,2.19-.46,4.38-.57,6.54a113,113,0,0,1-1,12.5c-1.07,7-4.33,13.46-8.54,19.37a228.73,228.73,0,0,1,2.79,31.44l16.3-17.36s4.82,3.43,4.81,11.6c0,1.2-8.25,10.86-22.31,26.47a37.2,37.2,0,0,1-1.82,6.45l23.65-25.05,0,0,1.74-1.8a36.46,36.46,0,0,1,12.45-8.46,50.64,50.64,0,0,1,15-3.39c2.6-.23,5.23-.33,8-.45,1.36-.06,2.73-.13,4.2-.31l1.14-.18,1.06-.23c.67-.16,1.45-.37,2.11-.57a76.28,76.28,0,0,0,15.06-7c9.43-5.49,18.29-11.52,27.36-17.26,4.51-2.87,9.08-5.75,13.63-8.43a136.85,136.85,0,0,1,14.16-7.13,174.59,174.59,0,0,1,30.3-9.62c5.2-1.24,10.46-2.37,15.74-3.76a67,67,0,0,0,15.6-5.86,36,36,0,0,0,7-5c.53-.5,1-1,1.55-1.54s.92-1,1.4-1.54c.93-1.07,1.81-2.16,2.65-3.3a47.93,47.93,0,0,0,4.4-7.23c.62-1.26,1.2-2.59,1.68-3.87s1-2.68,1.34-4.05A52.7,52.7,0,0,0,1435.19,322.43Zm-6.12,15.48c-.33,1.23-.73,2.46-1.17,3.63a37.32,37.32,0,0,1-1.52,3.54,42.39,42.39,0,0,1-4,6.58c-.75,1-1.56,2-2.39,3-.41.47-.84,1-1.31,1.46s-.87.89-1.32,1.32a31.36,31.36,0,0,1-6.11,4.45,63.24,63.24,0,0,1-14.57,5.53c-5.12,1.38-10.38,2.53-15.62,3.8a181.21,181.21,0,0,0-30.94,10,136.79,136.79,0,0,0-14.57,7.32c-4.7,2.76-9.23,5.61-13.79,8.51-9.09,5.75-18,11.8-27.21,17.14a72.7,72.7,0,0,1-14.22,6.65,23.18,23.18,0,0,1-3.64.82c-1.23.16-2.55.23-3.87.29-2.67.12-5.4.18-8.13.41a54.72,54.72,0,0,0-16.24,3.58,39.71,39.71,0,0,0-7.49,3.95c-.62-4.36-3.44-9.75-8-14.56-4.73-5-10.21-8.16-14.62-8.86a58.18,58.18,0,0,0,3.42-5.58,43.4,43.4,0,0,0,4.53-12.83,119.26,119.26,0,0,0,1.34-13.07c.16-2.08.37-4.11.68-6.09l.25-1.49.3-1.48c.2-.9.45-1.85.73-2.77a72.86,72.86,0,0,1,4.73-11.16c1.86-3.71,3.86-7.39,6-11.06,4.18-7.35,8.57-14.66,12.85-22.1,2.14-3.72,4.26-7.44,6.34-11.23s4.06-7.8,5.85-11.82,3.43-8.12,4.9-12.24l1.07-3.12,1-3.12c.65-2.13,1.24-4.21,1.82-6.32,2.31-8.45,4-16.95,5.78-25.2s3.69-16.28,7.35-22.63c.46-.78.94-1.54,1.46-2.28s1.09-1.45,1.57-2a40.88,40.88,0,0,1,4-4c.35-.3.72-.61,1.06-.88l.5-.4.64-.48c.7-.51,1.48-1.07,2.25-1.54a32.29,32.29,0,0,1,10-4.15,33.11,33.11,0,0,1,5.47-.8,46.21,46.21,0,0,1,11.25.76c7.61,1.36,15.1,4.47,22.36,8.11,3.63,1.84,7.18,3.9,10.66,6.1,1.75,1.1,3.5,2.21,5.2,3.35s3.43,2.34,5.13,3.56a200.86,200.86,0,0,1,19.3,15.87,114.79,114.79,0,0,1,8.45,9c2.73,3.17,5.38,6.44,7.93,9.78a166.53,166.53,0,0,1,13.79,21,115.38,115.38,0,0,1,9.73,23.06C1430.82,317.32,1431.82,328,1429.07,337.91Z" transform="translate(-484.75 -198.49)" fill="#fff"/><path d="M1398.1,290.71a175,175,0,0,0-12.64-19.19q-3.45-4.57-7.22-8.93c-.65-.74-1.23-1.42-2-2.19l-2-2q-2.06-2-4.19-3.92a176.81,176.81,0,0,0-18-14.29,100.09,100.09,0,0,0-20.27-11.1,55.22,55.22,0,0,0-11.33-3.12,35.39,35.39,0,0,0-12,.09,29,29,0,0,0-11.19,4.71,31.37,31.37,0,0,0-4.63,3.93,23.4,23.4,0,0,0-2,2.32,25.14,25.14,0,0,0-1.72,2.62,50.5,50.5,0,0,0-4.32,11c-1.06,3.73-1.92,7.43-2.79,11.13-1.71,7.39-3.39,14.73-5.62,21.88a178.94,178.94,0,0,1-7.83,21,174.3,174.3,0,0,1-10.49,19.78l-5.92,9.69-3,4.95c-1,1.71-1.94,3.46-2.81,5.27-3.46,7.17-5.9,15.34-5.47,23.92a38.51,38.51,0,0,0,2.74,12.56,44.33,44.33,0,0,0,6.43,11l1,1.25,1,1.15q1,1.17,2.16,2.28c.75.76,1.48,1.45,2.35,2.2s1.6,1.36,2.47,2a34.74,34.74,0,0,0,11.92,5.89l.17.05.3.05c1.68.29,3.27.56,5.07.8.46.06.91.12,1.55.16l.94,0h.73c1,0,1.93-.07,2.89-.16.47,0,1-.11,1.49-.18l.61-.08.76-.13c.94-.17,1.86-.36,2.78-.59.45-.11.91-.24,1.36-.37l1.35-.42c.85-.28,1.74-.6,2.59-.94a62,62,0,0,0,9.6-4.84c3.08-1.93,5.51-3.57,8.35-5.4l8.1-5.34,4.07-2.61,4-2.48a170.64,170.64,0,0,1,16.63-8.86,166,166,0,0,1,17.7-7c6.09-2.05,12.29-3.82,18.61-5.77,3.16-1,6.33-2.07,9.53-3.38a32.17,32.17,0,0,0,9.19-5.43c.34-.31.69-.64,1-1l.44-.46.45-.5c.55-.63,1.14-1.29,1.69-2a31.34,31.34,0,0,0,3-4.38,31.81,31.81,0,0,0,3.55-9.89v0c1.5-8,.26-16.06-1.95-23.49A107.26,107.26,0,0,0,1398.1,290.71Zm-146.3,56.12c1.13-2.53,2.47-5,3.88-7.45q.32,6.71.59,13.39l-6.9.47A57,57,0,0,1,1251.8,346.83Zm1.38,37.09a35,35,0,0,1-3.27-5.93,31.59,31.59,0,0,1-2.46-10.24,37.16,37.16,0,0,1,.94-10.95l8-.55q.57,13.74,1,27.35Zm2.47,3.31,1.9-.14c0,.78,0,1.57.07,2.35C1256.94,388.73,1256.29,388,1255.65,387.23Zm134.8-101.08c1.35,2.18,2.67,4.38,3.91,6.62a102.7,102.7,0,0,1,8.74,20.39c.16.55.31,1.11.46,1.67l-12.84.35q-1.32-14.26-2.4-28.91Zm-2.14-3.37h-.24c0-.14,0-.28,0-.42Zm-1.08,32.49q-14.6.41-29,.85-1.29-14.07-2.38-28.13,14.48-.72,29-1.53Q1385.91,301.07,1387.23,315.27Zm-20-57.82c1.39,1.26,2.74,2.54,4.08,3.84l2,2c.55.57,1.21,1.34,1.8,2,2.44,2.81,4.78,5.74,7,8.73.68.91,1.34,1.83,2,2.76l.42,6.22q-14.52.79-29,1.53-1.08-14-2-27.91,6-.35,12-.71C1366.11,256.42,1366.71,256.93,1367.28,257.45Zm-5.54-4.81-8.41.49c-.16-2.47-.32-4.95-.47-7.42C1355.9,247.91,1358.86,250.23,1361.74,252.64Zm-7,63.59q-16.27.52-32.4,1.12-.9-13.85-1.76-27.65,15.87-.74,31.79-1.53Q1353.47,302.19,1354.73,316.23Zm-2.64-31.54q-15.9.8-31.73,1.53-.84-14-1.66-27.88,15.93-.68,31.38-1.54Q1351,270.75,1352.09,284.69Zm-33.25,32.79q-14.4.56-28.69,1.18-.83-13.71-1.71-27.5,14.3-.63,28.65-1.3Q1317.95,303.65,1318.84,317.48ZM1330.3,233a95,95,0,0,1,18.9,10.16q.32,5.1.65,10.2-15.45.85-31.35,1.54-.72-12.54-1.43-25A47.05,47.05,0,0,1,1330.3,233Zm-41.36,18.87a46.59,46.59,0,0,1,3.86-10.08,22,22,0,0,1,1.38-2.12,19.13,19.13,0,0,1,1.68-1.93,27.5,27.5,0,0,1,4-3.4,24.6,24.6,0,0,1,9.47-4,27.92,27.92,0,0,1,4.27-.49q.72,12.58,1.45,25.24-13.39.56-27.16,1C1288.21,254.61,1288.56,253.2,1288.94,251.83Zm-1.92,7.69q14.3-.45,28.2-1,.81,13.9,1.66,27.89-14.36.66-28.66,1.3-.83-12.94-1.72-25.92C1286.67,261,1286.84,260.27,1287,259.52ZM1280.78,285c1.11-3.82,2.09-7.66,3-11.5q.46,7.19.94,14.37l-4.9.21C1280.16,287,1280.48,286,1280.78,285Zm-12.58,32.11c1.74-3.42,3.38-6.9,4.89-10.43,2.12-4.93,4-10,5.64-15.06l6.23-.27q.88,13.79,1.71,27.51-10,.45-19.91.94C1267.24,318.87,1267.73,318,1268.2,317.07Zm-9.3,16.69,3.8-6.62c.72-1.26,1.42-2.53,2.12-3.79q11-.56,22.06-1.05.86,14.37,1.69,28.66-14.55.69-28.82,1.59Q1259.36,343.19,1258.9,333.76Zm1,22.27q14.3-.9,28.87-1.59.78,13.6,1.55,27.12-14.79.74-29.4,1.78Q1260.47,369.75,1259.9,356Zm30.54,41.26a33.51,33.51,0,0,1-8.83,2.28q-1.12.12-2.25.15h-1l-1.07-.1c-1.5-.18-3.08-.42-4.61-.67a29.31,29.31,0,0,1-11.42-6.12q-.09-3-.19-6,14.65-1.06,29.49-1.79l.69,11.92C1291,397.07,1290.7,397.19,1290.44,397.29Zm-.08-75.14q14.31-.63,28.71-1.19.95,14.34,2,28.73-14.65.45-29,1.11Q1291.22,336.52,1290.36,322.15Zm16.53,65.57c-2.68,1.76-5.49,3.66-8.12,5.31q-2,1.26-4.16,2.36c-.2-3.51-.41-7-.61-10.52q9.15-.42,18.37-.72C1310.54,385.33,1308.72,386.53,1306.89,387.72Zm11.23-7.24q-12.22.34-24.32.91-.77-13.51-1.55-27.11,14.37-.66,29-1.12.89,12.12,1.83,24.27C1321.42,378.43,1319.76,379.45,1318.12,380.48Zm4.43-59.65q16.17-.61,32.51-1.12,1.34,14.55,2.9,29.14-16.93.24-33.43.73Q1323.51,335.2,1322.55,320.83Zm18.75,47.55a151.11,151.11,0,0,0-14.84,7.16q-.87-11.25-1.68-22.48,16.56-.49,33.55-.73c.35,3.24.72,6.49,1.09,9.74A170.41,170.41,0,0,0,1341.3,368.38Zm20.16-19.58q-1.57-14.62-2.91-29.2,14.42-.45,29-.85,1.44,15.12,3.17,29.86Q1375.92,348.61,1361.46,348.8Zm26.61,5.28a92.87,92.87,0,0,1-9.11,2.82c-5.32,1.4-10.75,2.72-16.14,4.21q-.51-4.42-1-8.83,14.48-.19,29.3-.19c0,.21,0,.43.08.64C1390.2,353.21,1389.15,353.67,1388.07,354.08Zm16.71-19.59a27.09,27.09,0,0,1-3.15,8.4,26.77,26.77,0,0,1-2.6,3.67c-.57.67-1.22,1.39-1.86,2.05h-2.94q-1.74-14.79-3.19-30l13.34-.35A41.15,41.15,0,0,1,1404.78,334.49Z" transform="translate(-484.75 -198.49)" fill="#fff"/><path d="M836.07,840.12A26.81,26.81,0,0,0,828.2,834a14.8,14.8,0,0,0-4.75-1.46,5.81,5.81,0,0,0-4.67,1.26h0l-16.34,11.24c3.38-.75,9.66.62,20.53,11.08,10,9.58,10,17.08,8.84,21.16L841,858.69a9.33,9.33,0,0,0,.33-1.11l.06-.27c.06-.28.1-.57.14-.86,0-.11,0-.23,0-.34,0-.31,0-.62.07-.93v-.12h0c0-.44,0-.87,0-1.31a20.61,20.61,0,0,0-.84-4.93A22.53,22.53,0,0,0,836.07,840.12Z" transform="translate(-484.75 -198.49)" fill="#fff"/><path d="M799.76,846.91a2.6,2.6,0,0,0-.58.4,2.42,2.42,0,0,0-.36.42l-.16.2c-.09.15-.15.31-.23.48s-.1.2-.14.31-.07.3-.1.44a3.12,3.12,0,0,0-.09.44c0,.14,0,.28,0,.43a5.71,5.71,0,0,0,0,.59c0,.12,0,.24,0,.36a8.31,8.31,0,0,0,.11,1c0,.1,0,.21.06.31s.1.48.16.72c.1.4.21.79.34,1.18,0,.11.06.21.1.32.13.39.28.77.44,1.15l.15.39c.16.37.33.72.5,1.08.07.14.13.28.2.43.16.32.33.63.5.94l.29.55c.49.87,1,1.72,1.56,2.56l.29.43c.55.83,1.12,1.64,1.72,2.43.06.08.14.17.2.26.56.73,1.15,1.45,1.74,2.15l.36.43c.67.77,1.35,1.53,2.05,2.27l.06.06a62.19,62.19,0,0,0,4.72,4.46l.14.12a52.22,52.22,0,0,0,5.29,3.94h0c.45.28.9.56,1.36.83l.06,0c.43.25.87.48,1.3.71l.25.13c.44.22.87.42,1.32.61l.15.07c.47.19.94.37,1.43.52l.14.05.69.19h0c.25.06.51.11.77.15h.14c.21,0,.43,0,.64.06h.15a4.84,4.84,0,0,0,.76,0h0a3.14,3.14,0,0,0,.73-.19l.06,0a2.36,2.36,0,0,0,.65-.38l.09-.06a2.33,2.33,0,0,0,.49-.55.47.47,0,0,0,.06-.09,3.32,3.32,0,0,0,.34-.68l.36-.72c.59-4.12-3.73-12.23-11-19.93C812.15,850.33,803.44,845.32,799.76,846.91Z" transform="translate(-484.75 -198.49)" fill="#fff"/><path d="M671.67,342.42c-.8-1.7-1.71-3.4-2.56-5l-5.28-9.54c-1.74-3.17-3.48-6.31-5.13-9.51s-3.13-6.4-4.54-9.66A172.6,172.6,0,0,1,647,288.69c-2-6.8-3.56-13.75-5-20.8s-2.68-14.21-4.85-21.64a50.75,50.75,0,0,0-2.08-5.72,27.74,27.74,0,0,0-3.26-5.7,32.68,32.68,0,0,0-4.48-4.77c-.4-.35-.8-.69-1.27-1.06l-.58-.46-.66-.5c-.88-.63-1.78-1.23-2.73-1.78-.47-.28-.94-.54-1.43-.8l-.79-.4-.61-.29-.82-.36-.76-.32c-.51-.2-1-.39-1.54-.56a33.82,33.82,0,0,0-6.35-1.49c-1.09-.13-2.1-.22-3.25-.26l-.74,0H605l-1.58,0a46.21,46.21,0,0,0-6.17.7,70.47,70.47,0,0,0-22,8.41c-3.32,1.9-6.54,3.93-9.62,6.11s-6,4.51-8.9,6.92-5.6,4.94-8.29,7.53c-1.32,1.3-2.65,2.63-3.94,4l-1.93,2-1,1.06-.32.36-.23.28-.46.55A168.49,168.49,0,0,0,527.76,278c-1.94,3.17-3.77,6.38-5.48,9.67s-3.37,6.61-4.85,10q-1.11,2.57-2.1,5.17c-.68,1.73-1.32,3.48-1.89,5.26a71.69,71.69,0,0,0-2.69,10.9v0a48.93,48.93,0,0,0-.65,11.23,34.25,34.25,0,0,0,2.54,11.14,31.22,31.22,0,0,0,6.33,9.54,23.85,23.85,0,0,0,2.09,2,22.72,22.72,0,0,0,2.37,1.76,32.14,32.14,0,0,0,5.07,2.63c7,2.83,14,4.17,21,6s13.77,3.65,20.47,6a148.61,148.61,0,0,1,19.46,8.49c6.27,3.3,12.19,7.25,18.18,11.17l9,6a65.43,65.43,0,0,0,9.6,5.46,39.85,39.85,0,0,0,10.78,3.28,26.76,26.76,0,0,0,5.85.27c1.89-.2,3.64-.47,5.45-.74h.07l.1,0c7.72-1.93,14-6.85,18.93-12.5a43.1,43.1,0,0,0,6.37-9.53,36.39,36.39,0,0,0,3.3-11.05,46.11,46.11,0,0,0-3.07-22.53C673.22,345.85,672.48,344.11,671.67,342.42Zm-7.35-3,.33.58c.91,1.59,1.74,3.1,2.51,4.68s1.5,3.17,2.14,4.79c.5,1.25.93,2.51,1.33,3.79l-6.9-.46Q664,346.1,664.32,339.39Zm-28.11-65.94c1.13,4.72,2.38,9.43,3.8,14.11l-4.72-.2Q635.74,280.42,636.21,273.45Zm-1.14,17.39,6,.25a175.66,175.66,0,0,0,7.83,20.08q2,4.36,4.3,8.59-9.93-.5-19.9-.94Q634.17,304.87,635.07,290.84Zm-28.64-61.07c.77,0,1.59.09,2.38.19a25.69,25.69,0,0,1,4.86,1.07c.77.25,1.59.57,2.29.88l.61.28.54.27c.36.18.73.38,1.09.59a23.93,23.93,0,0,1,2.09,1.34l.51.36.51.4c.31.24.64.51,1,.78a25.56,25.56,0,0,1,3.44,3.56,30.7,30.7,0,0,1,4.36,9c.78,2.45,1.45,4.95,2.08,7.48q-13.77-.44-27.17-1Q605.72,242.35,606.43,229.77Zm-1.65,28.72q13.9.58,28.21,1,.27,1.11.51,2.22-.87,12.75-1.69,25.47L603.14,286Q604,272.21,604.78,258.49Zm26.81,32.21q-.9,14-1.74,28-14.31-.63-28.69-1.18.92-14,1.77-28ZM570.8,243.13c2.73-1.85,5.52-3.6,8.39-5.2a65.48,65.48,0,0,1,19.5-7.55,38.36,38.36,0,0,1,4.24-.53q-.7,12.47-1.43,25c-10.62-.46-21-1-31.35-1.54Q570.48,248.23,570.8,243.13Zm-.89,13.68q15.47.85,31.39,1.53-.81,13.71-1.64,27.49-15.82-.69-31.72-1.46Q569,270.59,569.91,256.81Zm29.54,32.51q-.86,14-1.78,28-16.11-.6-32.4-1.12,1.29-14.21,2.39-28.38Q583.59,288.62,599.45,289.32Zm-37.91-39.38c1.83-1.46,3.71-2.86,5.6-4.24q-.23,3.72-.47,7.43l-8.42-.49C559.34,251.73,560.43,250.82,561.54,249.94Zm-25.7,26.79c3.11-4.31,6.41-8.49,9.9-12.45,1.06-1.23,2.42-2.52,3.68-3.75s2.6-2.45,3.93-3.65l1.12-1q6,.37,12,.71-.91,13.78-2,27.59-14.51-.7-29-1.47Q535.65,279.75,535.84,276.73Zm-.66,9.48q14.52.77,29,1.47-1.11,14.2-2.41,28.44-14.41-.45-29-.85Q534.11,300.95,535.18,286.21ZM532,282.37c0,.06,0,.12,0,.17h-.09ZM522,299.82a136.21,136.21,0,0,1,7.64-13.91l2,.11q-1.08,14.79-2.42,29.16l-12.85-.35A88.81,88.81,0,0,1,522,299.82Zm3.73,48.79h-2.94l-.65-.68a26.87,26.87,0,0,1-5.4-8.26c-2.53-6.12-2.65-13.12-1.46-19.86.09-.51.21-1,.31-1.51l13.32.35Q527.51,333.83,525.77,348.61Zm31.41,12.5c-2.23-.62-4.47-1.22-6.7-1.79-3.48-.9-7-1.75-10.38-2.68a78.05,78.05,0,0,1-9.9-3.25c-.49-.21-.94-.44-1.41-.67,0-.21.05-.42.08-.63q14.82,0,29.3.19Q557.69,356.69,557.18,361.11Zm-27.9-12.5q1.72-14.75,3.17-29.86,14.58.39,29,.85-1.35,14.58-2.91,29.19Q544.08,348.61,529.28,348.61Zm64.25,26.94c-.75-.42-1.5-.85-2.26-1.26a153.17,153.17,0,0,0-20-8.78c-3.53-1.27-7.1-2.4-10.7-3.44.37-3.25.74-6.5,1.09-9.74q17,.24,33.55.73Q594.41,364.3,593.53,375.55ZM562,348.85q1.56-14.6,2.9-29.14,16.34.53,32.51,1.12-1,14.35-2,28.75Q579,349.09,562,348.85Zm63.35,46.54c-.75-.39-1.41-.75-2.13-1.15-1.51-.86-3-1.76-4.45-2.76l-9-5.91-2.2-1.42q9.23.3,18.37.72C625.8,388.38,625.59,391.88,625.39,395.39Zm.81-14q-12.11-.57-24.33-.92-2.46-1.55-5-3,.95-12.15,1.83-24.28,14.67.46,29,1.12Q627,367.87,626.2,381.39ZM599,349.68q1-14.37,2-28.72,14.42.56,28.71,1.19-.87,14.36-1.69,28.65Q613.61,350.14,599,349.68Zm59.82,43.14c-.8.67-1.61,1.32-2.46,1.91a29.91,29.91,0,0,1-4.38,2.57,25.78,25.78,0,0,1-4.58,1.66c-1.69.27-3.44.54-5.06.72a22.71,22.71,0,0,1-4.81-.22,35.47,35.47,0,0,1-8.7-2.5l.69-11.92q14.84.73,29.49,1.79Q658.87,389.83,658.78,392.82Zm.3-9.48q-14.61-1.05-29.4-1.78.77-13.51,1.55-27.12,14.58.69,28.87,1.59Q659.53,369.74,659.08,383.34Zm1.17-30.79q-14.26-.9-28.82-1.59.84-14.29,1.69-28.66,11.05.49,22.06,1.05,2,3.61,4.07,7.2l1.85,3.23Q660.64,343.19,660.25,352.55Zm3.63,35.23c-.49.57-1,1.12-1.5,1.66,0-.79,0-1.57.07-2.35l1.88.14C664.18,387.41,664,387.6,663.88,387.78Zm8.49-18.21a31.61,31.61,0,0,1-2.86,9.71,36.57,36.57,0,0,1-2.67,4.64l-4.28-.32q.45-13.61,1-27.35l8,.55A36.22,36.22,0,0,1,672.37,369.57Z" transform="translate(-484.75 -198.49)" fill="#fff"/><path d="M849.25,843.39A16.25,16.25,0,0,0,842.71,832l17.71-18.85q-9.72-1.83-19.12-3.94L821,831.36a6.91,6.91,0,0,1,2.61-.64,17.23,17.23,0,0,1,5.76.87,30.53,30.53,0,0,1,10,5.52,23.18,23.18,0,0,1,6.8,10.17c.24.78.44,1.57.62,2.38l31.56-33.43c-.93-.14-1.87-.27-2.8-.42C859.07,833.11,849.25,843.39,849.25,843.39Z" transform="translate(-484.75 -198.49)" fill="#fff"/><path d="M1077.29,832a16.25,16.25,0,0,0-6.54,11.35s-9.88-10.35-26.46-27.75l-2.78.44,36.8,39c0-.44,0-.87,0-1.31a20.57,20.57,0,0,1,.81-4.93,22.77,22.77,0,0,1,4.78-8.73,26.56,26.56,0,0,1,7.87-6.13,14.55,14.55,0,0,1,4.77-1.48,5.92,5.92,0,0,1,4.6,1.24L1078.49,809q-9.37,2.13-19.08,4Z" transform="translate(-484.75 -198.49)" fill="#fff"/><path d="M711.29,466.15c0-.51,0-1,0-1.53-17.3-19.06-27.65-31-27.66-32.38,0-8.17,4.81-11.6,4.81-11.6L712.24,446q.56-6.17,1.4-12.23c-2.18-1.74-3.51-4.37-4-7.92-.51-3.78-.17-9.4.64-15.6l-.92-1.2a63.28,63.28,0,0,1-6.89-10.91,39.78,39.78,0,0,1-3.66-12.1c-.58-4.22-.58-8.65-.89-13.22-.16-2.28-.4-4.59-.79-6.88a42.92,42.92,0,0,0-1.72-6.85A98.54,98.54,0,0,0,690,346.46c-2-4-4.19-8-6.37-11.92-4.37-7.83-8.84-15.57-13.11-23.38-2.14-3.91-4.3-7.83-6.19-11.76s-3.66-8-5.25-12.14a190.47,190.47,0,0,1-7.63-25.35c-2.05-8.63-3.55-17.43-5.75-26.25a74.26,74.26,0,0,0-4.44-13.09c-.24-.54-.5-1.06-.77-1.59l-.42-.81-.41-.73c-.59-1-1.23-2.07-1.91-3a37.66,37.66,0,0,0-4.62-5.41,43.86,43.86,0,0,0-11.42-8.26,40.5,40.5,0,0,0-13.59-4c-9.44-1.05-18.78,1-27.34,4.18a121.48,121.48,0,0,0-24.14,12.74,195.36,195.36,0,0,0-21.42,16.64c-3.39,3-6.64,6.06-9.85,9.44s-5.94,6.86-8.73,10.43a206,206,0,0,0-15.29,22.38,143.6,143.6,0,0,0-11.68,24.6c-3,8.6-5.07,17.73-4.9,27.07v0a50.5,50.5,0,0,0,2.6,15.3c.21.62.43,1.24.67,1.84l.37.93.37.86c.54,1.25,1.1,2.39,1.73,3.54a47.46,47.46,0,0,0,4.28,6.54,45.75,45.75,0,0,0,5.3,5.79,35.77,35.77,0,0,0,6.46,4.58,63.49,63.49,0,0,0,14.4,5.55c9.75,2.62,19.45,4.41,28.86,7.17A144.85,144.85,0,0,1,577,389.11c4.34,2.22,8.5,4.78,12.71,7.4s8.35,5.28,12.53,8c8.34,5.35,16.59,10.92,25.53,15.7a74.41,74.41,0,0,0,6.93,3.26,36.5,36.5,0,0,0,7.67,2.25c2.73.36,5.18.37,7.65.5s4.87.27,7.25.56a46.84,46.84,0,0,1,13.67,3.6,36.39,36.39,0,0,1,11.38,8l1.74,1.8,0,0,25.6,27.11a4.83,4.83,0,0,1,.68-.56A5.05,5.05,0,0,1,711.29,466.15Zm-31.4-39.72a43,43,0,0,0-5.76-3.16A54.86,54.86,0,0,0,658.24,419c-2.66-.34-5.29-.52-7.83-.65s-5.07-.21-6.88-.48c-3.52-.6-7.92-2.56-12-4.76s-8.25-4.8-12.43-7.36-8.31-5.26-12.52-7.94-8.45-5.29-12.73-7.88L590.61,388,587.33,386q-3.36-1.92-6.84-3.6a152.11,152.11,0,0,0-28.83-10.5c-9.82-2.59-19.78-4.12-29.18-6.34A59.39,59.39,0,0,1,509.21,361a30,30,0,0,1-5.64-3.81,39.4,39.4,0,0,1-4.79-5,42.4,42.4,0,0,1-9.38-26c-.18-8.58,1.69-17.2,4.57-25.45a139,139,0,0,1,11.22-23.85,203.13,203.13,0,0,1,14.89-22c2.72-3.49,5.54-6.94,8.47-10.19s6.24-6.22,9.51-9.16A192.33,192.33,0,0,1,559,219.18a118.41,118.41,0,0,1,23.27-12.38c8.15-3.08,16.89-5,25.44-4a36.6,36.6,0,0,1,12.22,3.6,39.86,39.86,0,0,1,10.34,7.54c6.26,5.9,9.27,14.26,11.39,22.78s3.6,17.42,5.63,26.19c1,4.39,2,8.79,3.27,13.13s2.65,8.65,4.25,12.92,3.18,8.5,5,12.64c.45,1,.93,2.08,1.42,3.12s.94,2,1.49,3.05l3.14,6,12.8,23.6c2.09,3.92,4.14,7.86,6,11.8A92.21,92.21,0,0,1,689.55,361c.32,1,.6,2,.82,3,.12.53.2.85.3,1.46l.14.74.12.77c.3,2.06.48,4.15.59,6.29.22,4.27.11,8.84.7,13.69a46.51,46.51,0,0,0,4,14.16,60.38,60.38,0,0,0,3.17,5.9A30.77,30.77,0,0,0,687,415.34,32.4,32.4,0,0,0,679.89,426.43Z" transform="translate(-484.75 -198.49)" fill="#fff"/><path d="M1097,877.71c.9-.47,1.8-1,2.72-1.5a55.14,55.14,0,0,0,10.13-7.87,52.22,52.22,0,0,0,8.25-10,24.2,24.2,0,0,0,2.66-5.79,8.36,8.36,0,0,0,.33-3,2.66,2.66,0,0,0-1.31-2.18l0,0h0l-1-.75c-4.23-.05-11.82,4.74-18.86,12.23-5,5.33-8.6,10.86-10.16,15.13.52,1.51,1.1,3,1.65,4.48l.15.41c0,.06,0,0,0,.11a.45.45,0,0,0,.06.14.68.68,0,0,0,.45.2,5.69,5.69,0,0,0,2.3-.4A28.1,28.1,0,0,0,1097,877.71Z" transform="translate(-484.75 -198.49)" fill="#fff"/><path d="M1097,856.15c9.78-9.41,15.84-11.46,19.42-11.24l-5.92-4.41c-1.53-1.13-3-2.3-4.61-3.41s-3-2.36-4.9-3l.07,0-.11-.06a3.53,3.53,0,0,0-2.22-.27,16.31,16.31,0,0,0-2,.53,12.93,12.93,0,0,0-3.77,2.07,23.65,23.65,0,0,0-5.76,6.71,26.09,26.09,0,0,0-2.77,7.24,19.58,19.58,0,0,0-.51,3.62,18.34,18.34,0,0,0,.1,2.81l-.22-.5c.77,1.78,1.38,3.64,2,5.48s1.18,3.73,1.75,5.61l.66,2.14C1089.22,865.78,1091.71,861.26,1097,856.15Z" transform="translate(-484.75 -198.49)" fill="#fff"/><path d="M879.41,506.6c-1,11.9-1.92,23.27-2.71,33.93q5.84.74,11.82,1.36C881.22,519.92,879.41,506.6,879.41,506.6Z" transform="translate(-484.75 -198.49)" fill="#fff"/><path d="M1126.21,626l-.81,1.27c33.87-28.57,58.7-65.95,70.08-108.13a143.4,143.4,0,0,1-8.28,15.46C1175.37,569.64,1154.14,600.93,1126.21,626Z" transform="translate(-484.75 -198.49)" fill="#fff"/><path d="M1139.33,585q-1.92,1.41-3.88,2.79c-26.11,18.21-57.09,31.76-90.88,40.07-.28.85-.57,1.68-.85,2.51,32.31-8.38,62-21.57,87.08-39.1C1133.73,589.18,1136.56,587.08,1139.33,585Z" transform="translate(-484.75 -198.49)" fill="#fff"/><path d="M1112.79,637.2a252.94,252.94,0,0,0,31.62-56.07c-1.52,1.19-3.08,2.36-4.66,3.52a253.07,253.07,0,0,1-31.36,55.68Q1110.61,638.78,1112.79,637.2Z" transform="translate(-484.75 -198.49)" fill="#fff"/><path d="M1098,653.26a214.26,214.26,0,0,1-30.89,29.31,212,212,0,0,0,35.54-32.8,250.47,250.47,0,0,1-40.27,20.85c-.09.55-.19,1.09-.28,1.64A251,251,0,0,0,1098,653.26Z" transform="translate(-484.75 -198.49)" fill="#fff"/><path d="M729.27,522.63q1.41,5.26,3.11,10.4c9.24,16.43,22.14,31.82,38.44,45.66a264.58,264.58,0,0,0,23.63,47.81c1.61,1.44,3.24,2.87,4.9,4.27A263.59,263.59,0,0,1,773,578.69C753.31,562,738.56,543,729.27,522.63Z" transform="translate(-484.75 -198.49)" fill="#fff"/><path d="M769.76,569.49a286.07,286.07,0,0,1-11-44l-2.82-4a288.52,288.52,0,0,0,10.6,45C767.63,567.48,768.68,568.49,769.76,569.49Z" transform="translate(-484.75 -198.49)" fill="#fff"/><path d="M840.38,618.58s0,0,0,0a268.37,268.37,0,0,1-26.18-12.13,243,243,0,0,1-24.88-15.19q-4.62-3.22-9-6.6c.34.83.7,1.63,1,2.45,1.88,1.4,3.78,2.79,5.73,4.15a256.58,256.58,0,0,0,53.7,28.36Z" transform="translate(-484.75 -198.49)" fill="#fff"/><path d="M822.09,653.26c.89,1,1.79,2,2.69,3a250.78,250.78,0,0,0,32,16.37c-.07-.35-.12-.7-.19-1A250.7,250.7,0,0,1,822.09,653.26Z" transform="translate(-484.75 -198.49)" fill="#fff"/><polygon points="562.94 335.5 605.98 337.56 619.76 310.44 560.45 304.56 562.94 335.5" fill="#fff"/><path d="M932.27,522.64a6,6,0,0,0,5,4.37l42.62,3.76v.94l-41.44-.59,5.38,15.25,0,0s2.11,5.87,7.56,7.51l-.16.11,5,1.36,30.84,9.29A24.27,24.27,0,0,0,1003.7,562a11.13,11.13,0,0,1,1.66-.73l42.75-23.79-48.6,21.44c-5.3,2.34-6.41-3.19-6.61-4.72l0-.36v0h0l-.18-1.56h0c3.53-60.75-11.55-102.38-11.55-102.38l-.28-2.49c-.79-7,3.78-6.68,6.26-6l1.5.51h0l53.25,18.06.85,12.34,1.42,17.6,56-20.94-8.54-9.33a283.67,283.67,0,0,0-38-3.11l-11.9,3.31v.07L987.12,437c-8.91-3.73-14.83-.33-14.89-.29l-35.31,20.58a11,11,0,0,0-4.28,7.21l-.89,21.14,35.63-11.25.3.76-35,14c-1.47.78-4.34,3-3.72,7.84Z" transform="translate(-484.75 -198.49)" fill="#fff"/><polygon points="549.84 340.58 547.7 261.7 540.42 259.24 549.84 340.58" fill="#fff"/><polygon points="534.29 347.85 528.09 255.05 517.2 251.36 534.29 347.85" fill="#fff"/><polygon points="239.99 269.77 241.66 286.91 253.12 293.81 257.41 275.85 239.99 269.77" fill="#fff"/><path d="M744.61,464.05l6.15-25.79h0a108.83,108.83,0,0,1-13.1,1.6l-8.39,10,15.33,14.22Z" transform="translate(-484.75 -198.49)" fill="#fff"/><polygon points="266.02 239.76 266.01 239.77 266.03 239.76 266.02 239.76" fill="#fff"/><polygon points="293.82 233.53 285.35 236.48 271.92 310.26 293.82 233.53" fill="#fff"/><polygon points="272.94 240.79 258.38 298.44 276.96 239.39 272.94 240.79" fill="#fff"/><path d="M966.14,641.53c0-.16,0-.31,0-.47,24.1,0,44-.47,66.72-5.66-.92,3.47-1.67,6-2.68,9l3.67-.61q2.82-7.12,5.38-14.68a315.85,315.85,0,0,1-72.76,8.5h-.22a304.22,304.22,0,0,1,4-38c.57-3.46,1.19-6.92,1.87-10.35s1.48-6.85,2.3-10.25q1.15-4.76,2.46-9.45l-6.93-3.22c-.85,3.8-1.6,7.63-2.3,11.46q-1.87,10.53-3.08,21.16a330.6,330.6,0,0,0-2.15,38.65h0c0,1.16,0,2.32,0,3.49v.56c.05,2.82.15,5.64.27,8.46l3.38,0Q966.05,645.78,966.14,641.53Z" transform="translate(-484.75 -198.49)" fill="#fff"/><path d="M1170.25,385.69a177.89,177.89,0,0,1,11.32,44.68,319.2,319.2,0,0,1-35.54-.46c.06.35.13.69.19,1a335,335,0,0,0,38.83.66,178.8,178.8,0,0,0-12.31-47.25C1171.93,384.81,1171.08,385.25,1170.25,385.69Z" transform="translate(-484.75 -198.49)" fill="#fff"/><path d="M1153.49,347.63c-2.61-4-5.26-7.87-7.9-11.49-.46.56-.94,1.11-1.4,1.66,1.94,2.75,3.89,5.62,5.82,8.6A224.67,224.67,0,0,1,1168,380c-9.67,5.37-21.7,10-33.77,13.83.34.68.68,1.34,1,2,12.9-4,25.93-8.88,36.26-14.62A225.29,225.29,0,0,0,1153.49,347.63Z" transform="translate(-484.75 -198.49)" fill="#fff"/><path d="M789.55,303.53c-.78,1-1.55,2-2.32,3a47.26,47.26,0,0,1,10.13.11q13.5,1.57,27,10.15a141.93,141.93,0,0,0-22.95,35l1.75.25a142.24,142.24,0,0,1,24.45-38.39q-13.51-8.56-27-10.16A48.21,48.21,0,0,0,789.55,303.53Z" transform="translate(-484.75 -198.49)" fill="#fff"/><path d="M786.17,299.28l.78-.14a187.83,187.83,0,0,1,15.21-16.73A187.08,187.08,0,0,0,786.17,299.28Z" transform="translate(-484.75 -198.49)" fill="#fff"/><path d="M1068.57,328.32c-1.58-.3-3.15-.66-4.7-1.07-.57,2.61-1.17,5.2-1.83,7.79-.12.45-.25.91-.37,1.37C1064.13,333.68,1066.42,331,1068.57,328.32Z" transform="translate(-484.75 -198.49)" fill="#fff"/><path d="M985.56,389.61c-1.26,2.26-2.5,4.54-3.72,6.82s-2.38,4.6-3.69,6.88a94.36,94.36,0,0,1-8.87,13c-.38.47-.79.92-1.18,1.38q13.11-8.81,26-17.94l1.69-27.58c-.83,1.32-1.64,2.65-2.45,4Q989.33,382.83,985.56,389.61Z" transform="translate(-484.75 -198.49)" fill="#fff"/><path d="M1031.62,338.77a5,5,0,0,0-1.73-2.38,3.27,3.27,0,0,0-2.6-.34,13.86,13.86,0,0,0-4.81,2.49l-7.35,41A108.47,108.47,0,0,1,1029,365.92a41.94,41.94,0,0,0,3.69-12.5,40.89,40.89,0,0,0,.25-7.5A24,24,0,0,0,1031.62,338.77Z" transform="translate(-484.75 -198.49)" fill="#fff"/><path d="M1010.75,350.62c-3.89,4.9-7.5,10-10.94,15.27l-5.58,33.79q6.62-4.71,13.14-9.54a87.57,87.57,0,0,1,6.84-9.54l2.38-36.69C1014.55,346,1012.61,348.31,1010.75,350.62Z" transform="translate(-484.75 -198.49)" fill="#fff"/><path d="M1003.88,396.49c-6.66,4.6-13.41,9.07-20.08,13.64-8.44,5.69-17,11.21-25.46,16.86q4.62-1.61,9.16-3.48c2-.85,4.06-1.72,6.06-2.66s4-1.85,6-2.83c4-2,7.89-4.09,11.77-6.29,3-1.69,5.9-3.45,8.81-5.25A57.51,57.51,0,0,1,1003.88,396.49Z" transform="translate(-484.75 -198.49)" fill="#fff"/><path d="M956.59,425.37a42.25,42.25,0,0,0,5.77-4.79,67.59,67.59,0,0,0,5.19-5.64,93,93,0,0,0,8.58-12.76c1.25-2.24,2.36-4.57,3.56-6.89s2.4-4.62,3.63-6.92c2.45-4.58,5-9.12,7.52-13.68s5.24-9,7.94-13.51,5.57-8.88,8.72-13.14a71.55,71.55,0,0,1,10.72-12.11,28,28,0,0,1,3.51-2.59,15.56,15.56,0,0,1,4.53-1.95,9.12,9.12,0,0,1,3-.18,7.3,7.3,0,0,1,3.22,1.17A9.66,9.66,0,0,1,1036,337a20.27,20.27,0,0,1,1.14,4.47l.15,1.09.1,1c.07.7.12,1.39.15,2.09a44.89,44.89,0,0,1-.38,8.35,39.61,39.61,0,0,1-1.52,6.72,210.59,210.59,0,0,0,22.91-20.94q.76-2.62,1.47-5.27c.67-2.58,1.29-5.19,1.88-7.8-1.39-.39-2.76-.81-4.12-1.26a135.34,135.34,0,0,1-17.63-7.36q-4.25-2.13-8.38-4.47L1029,312a42,42,0,0,1-7.8.55,88.64,88.64,0,0,1-15.23-1.68,142.25,142.25,0,0,1-13.91-3.37l-1.92.79c-1.33.54-2.65,1.11-4,1.7.29,1.76.53,3.53.68,5.3a60.2,60.2,0,0,1,.15,6.44,43.43,43.43,0,0,1-2.15,12.61,36.46,36.46,0,0,1-5.77,11.31,35,35,0,0,1-4.29,4.64,35.39,35.39,0,0,1-4.95,3.86,42.64,42.64,0,0,1-11.32,5c-3.92,1.15-7.87,2-11.76,3a76.37,76.37,0,0,0-11.41,3.44,34.78,34.78,0,0,0-9.49,5.76c-.65.78-1.3,1.57-2,2.32a43.35,43.35,0,0,1-6,5.59,55,55,0,0,1-6.94,4.39c-2.39,1.29-4.82,2.45-7.21,3.63l-7.18,3.56c-9.57,4.77-19.11,9.6-28.9,14.05a109.44,109.44,0,0,1-15.26,5.88,59.89,59.89,0,0,1-16.52,2.74,24.69,24.69,0,0,1-4.48-.37,14.9,14.9,0,0,1-2.38-.61,17.81,17.81,0,0,1-2.1-.91,13.89,13.89,0,0,1-3.57-2.7c-.7,3.27-1.31,6.58-1.81,9.88s-.85,6.56-1,9.84c2.07-1.85,5.09-2.8,9.08-3.16,9.62-.85,19.88-.43,31.43,4.71s7.27,15.82,5.78,19.46a26.23,26.23,0,0,0-2.57,11.54v.39l2.61-.5q2.58-.52,5.18-1.13,5.17-1.23,10.33-2.72c6.87-2,13.69-4.23,20.43-6.72a382.92,382.92,0,0,0,39.63-17.34l.27-.14h.19c1.09-.58,2.19-1.11,3.3-1.6,3-1.58,7.2-3.9,10.44-6l.36.55-.35-.55Zm-4.37-29,.11-14.68L923,388.16l36-18.43.18,11.12,31-16Z" transform="translate(-484.75 -198.49)" fill="#fff"/><path d="M939.69,350.78c-.6,1-1.2,2-1.82,3-1,1.7-2.09,3.39-3.17,5.08l.79,4.55a94.52,94.52,0,0,1,10.82-3.17c3.92-.95,7.82-1.84,11.61-3a41.27,41.27,0,0,0,10.69-4.94,31.79,31.79,0,0,0,13.16-18.8A40.05,40.05,0,0,0,983,321.85a46.06,46.06,0,0,0-1.54-9.62,105.52,105.52,0,0,0-18.6,11.51,89.13,89.13,0,0,0-14.15,13.92c3.06,4.13,2.05,8.6,0,10.83C946.09,351.22,943.46,351.71,939.69,350.78Z" transform="translate(-484.75 -198.49)" fill="#fff"/><path d="M829.28,406.53c.55.22.9.34,1.61.58.4.11,1,.28,1.5.37a20.45,20.45,0,0,0,3.49.34,45.84,45.84,0,0,0,7.48-.62c2.52-.39,5-.93,7.56-1.58s5-1.4,7.48-2.22,4.93-1.79,7.39-2.77c9.86-3.95,19.65-8.22,29.39-12.58,9.63-4.58,20-8.05,26.82-16.09a86,86,0,0,0,9.17-12.83c1.37-2.27,2.7-4.57,4-6.89s2.54-4.65,3.92-7a93.85,93.85,0,0,1,9.4-13.34,79.11,79.11,0,0,1,11.84-11.3c8.63-6.76,18.57-11.55,28.71-15.15a207.68,207.68,0,0,1,31.16-8c-8.18,2.8-16.39,5.47-24.39,8.56,3.52.82,7.08,1.5,10.63,2.05a91.76,91.76,0,0,0,14.74,1.2,39.45,39.45,0,0,0,7.18-.69c1.09-.21,2.33-.57,3.49-.91s2.34-.74,3.49-1.14a95.41,95.41,0,0,0,13.45-6.06A102,102,0,0,0,1072.38,283a51.82,51.82,0,0,0,6.15-7.5c-10.28,11.11-32.36,19.73-32.36,19.73-85.4-9.38-111.81,42.05-124.16,61.53-10,15.82-60.92,38.32-80.2,40.36-12.67,1.34-17.11-3.68-18.63-8a25.66,25.66,0,0,0-1,6.82,10.52,10.52,0,0,0,7.14,10.59Z" transform="translate(-484.75 -198.49)" fill="#fff"/><path d="M1270.68,610.11,1247,716.21s-112.29,93.11-287.62,93.11S671.8,716.21,671.8,716.21l-23.65-106.1S795.15,715,959.42,715s311.26-104.89,311.26-104.89M639,596.23l3.38,15.17L666,717.51l.44,2,1.57,1.3c1.17,1,29.24,24,79.34,47.36a507.39,507.39,0,0,0,91.73,32.39,499.31,499.31,0,0,0,240.69,0,507.12,507.12,0,0,0,91.73-32.39c50.11-23.33,78.18-46.39,79.35-47.36l1.57-1.3.44-2,23.64-106.11,3.38-15.16-12.64,9c-.37.26-37.13,26.3-93.31,52-51.66,23.63-130.82,51.8-214.5,51.8s-163-28.23-214.76-51.91c-56.12-25.69-92.69-51.62-93-51.88l-12.65-9Z" transform="translate(-484.75 -198.49)" fill="#fff"/><path d="M692.44,662.24q3.54,15.1,7.27,30.18c3.33,2,5,3,8.37,5q-7.67-17.53-15.43-35A1.48,1.48,0,0,0,692.44,662.24Z" transform="translate(-484.75 -198.49)" fill="#fff"/><path d="M760.05,702.8c-1-3.54-3.15-5.88-7.27-7.66-2.29-1-3.43-1.5-5.72-2.52l6.28,21.8,3.54,1.57c6.55,2.87,7.27,1.76,6-2.75C761.77,709.07,761.2,707,760.05,702.8Z" transform="translate(-484.75 -198.49)" fill="#fff"/><path d="M1155.63,740.21c3.32-1.47,4.79-2.74,5.55-5.35q6-20.49,11.92-41c.76-2.61-.41-2.65-3.95-1.08s-5.12,2.82-5.84,5.41q-5.68,20.37-11.38,40.73C1151.2,741.54,1152.31,741.68,1155.63,740.21Z" transform="translate(-484.75 -198.49)" fill="#fff"/><path d="M910.34,733.41l-.24,0q-1.35,14.58-2.49,29.16c3.75.4,5.63.57,9.38.89Q913.77,748.4,910.34,733.41Z" transform="translate(-484.75 -198.49)" fill="#fff"/><path d="M979.84,743.78c.14-4.89-.79-6.28-5.2-6.15-2.16.06-3.24.09-5.39.13l-.63,42.56,5.06-.12c4.14-.13,5.1-1.63,5.25-6.53Q979.38,758.73,979.84,743.78Z" transform="translate(-484.75 -198.49)" fill="#fff"/><path d="M1009.29,679.88c.29-2.49.44-3.74.74-6.23.25-2.11-.26-3-1.78-2.77l-2.11.3c-.56,5.15-.84,7.73-1.41,12.89l1.31-.18C1008.45,683.55,1009,682.56,1009.29,679.88Z" transform="translate(-484.75 -198.49)" fill="#fff"/><path d="M1060.73,646.55a434.3,434.3,0,0,1-202.71,0q4,21.62,8,43.22c.55,3,1.1,6,1.66,9a392.7,392.7,0,0,0,183.4,0q.83-4.47,1.66-9Q1056.73,668.17,1060.73,646.55ZM927.19,706.69c-3.76-.38-5.65-.61-9.4-1.1q-4.06-16.49-8.48-32.87l-.09,0c1.69,12.91,2.53,19.37,4.19,32.27-2.37-.35-3.55-.53-5.91-.93q-2.75-20.71-5.47-41.44c4.13.69,6.21,1,10.35,1.57q4.33,16.35,8.34,32.79c0-.05,0-.06.06-.11-1.42-12.82-2.14-19.23-3.59-32.06,2.64.32,4,.47,6.61.74ZM898,702.31c-.94-4.07-1.42-6.1-2.38-10.17-1.71-.34-2.56-.52-4.26-.89.35,4,.52,5.92.88,9.86-2.59-.56-3.89-.86-6.47-1.48q-1.8-20.4-3.14-40.83c4.57,1,6.86,1.51,11.46,2.39q5.4,21.12,10.42,42.34C901.91,703.07,900.61,702.82,898,702.31Zm36.62,5.06q-1.08-16.86-2.15-33.71c-2-.16-2.94-.24-4.9-.42l-.55-7.39c6.84.64,10.27.87,17.13,1.17.11,3,.16,4.42.26,7.37l-4.91-.25q.79,16.83,1.58,33.67C938.5,707.66,937.21,707.57,934.63,707.37Zm29.8.93q-1.12-17-2.49-33.94h-.09q-1.54,17-2.88,34c-3.66,0-5.49,0-9.14-.14q-2.08-20.58-4.5-41.13c2.76.11,4.14.16,6.9.21q1.26,17.51,2.37,35h.08q1.1-17.49,2.43-35c3.86,0,5.79,0,9.66-.07q1.13,17.46,2,34.92h.08q1.3-17.54,2.77-35.06c2.76-.1,4.14-.16,6.9-.31q-2.64,20.58-5,41.2C969.91,708.19,968.08,708.24,964.43,708.3Zm14.94-.59q1.05-20.52,2.11-41.05c5.49-.35,8.24-.58,13.72-1.15-.24,3-.37,4.44-.61,7.4-2.59.26-3.88.38-6.47.6-.24,3.61-.36,5.42-.61,9,2.35-.2,3.53-.31,5.88-.55-.23,2.82-.35,4.23-.58,7-2.31.24-3.46.35-5.77.54l-.7,10.27c2.62-.22,3.93-.34,6.54-.61-.25,3-.37,4.43-.62,7.39C987.11,707.17,984.54,707.38,979.37,707.71Zm34.88-15.19c-.61,4.52-.92,6.77-1.53,11.29-2.56.44-3.85.64-6.41,1,.56-4.73.84-7.1,1.41-11.83.2-1.71-.39-2.34-2.64-2l-1.12.15c-.63,5.71-.94,8.56-1.57,14.26-2.57.36-3.86.52-6.44.82q1.93-20.61,3.85-41.21c3.52-.41,5.28-.64,8.79-1.14,7.62-1.09,9.46.59,8.4,8.38-.27,2-.4,3-.67,5-.85,6.3-2.79,8-5.71,9.17,0,.05,0,.07,0,.12C1013.48,687,1014.94,687.43,1014.25,692.52Zm13-3-2.21.47c-.77,4.74-1.15,7.11-1.91,11.85-2.56.53-3.83.78-6.39,1.25q3-20.76,6-41.54c4.07-.75,6.1-1.16,10.15-2,5.1-1.1,7.36.76,6,8.4l-1.35,7.29C1035.72,685.22,1033.18,688.25,1027.29,689.51Z" transform="translate(-484.75 -198.49)" fill="#fff"/><path d="M894,684.9c-1.82-7.63-2.74-11.45-4.61-19.09l-.09,0c.57,7.37.87,11.06,1.49,18.44Z" transform="translate(-484.75 -198.49)" fill="#fff"/><path d="M1028.25,682.08c1-.21,1.62-1.07,2-3.38l1.7-10c.23-1.38-.08-1.7-1.29-1.44l-2,.41c-1,5.94-1.43,8.92-2.39,14.85Z" transform="translate(-484.75 -198.49)" fill="#fff"/><path d="M1068.64,710.43c-7.48,1.66-11.41,2.45-18.52,3.73-4.19.75-10.47,1.83-12.39,2.12l-3.71.55c-8.06,1.21-12,1.71-20.23,2.6l-5.5.6-1.8,23.33c-.49-6.39-2.65-11.33-6.54-15-4.6-4.3-11.35-6.47-20-6.47-1.5,0-3.09.06-4.72.19-6.5.21-10.77.29-15.17.29-3.13,0-6.45,0-11.12-.13l-7-.14.65,45.35c-3.08-13.86-6.29-27.77-9.62-41.6l-1-4.21-5.08-.32c-10.94-.7-22-1.77-33-3.18l-7.08-.92-.65,6c-1.36,12.66-2.6,25.45-3.74,38.23l-5.57-45.81-4.83-.84c-12.72-2.21-18.9-3.49-31.51-6.52l-8.45-2-.13,7.42q-.1,6-.17,12.06-3.27-9.46-6.56-18.8l-1-2.83-3.32-.94c-10.39-2.94-20.79-6.24-30.89-9.8l-11.61-4.1,2,8.52c-6.57-9.21-17.63-15-29.09-19.89-9.4-4.21-14-6.4-23.25-11.12l-14.06-7.17,6.54,21.67q-5-11.28-10.05-22.61l-.76-1.7-1.79-1c-10-5.66-19.91-11.73-29.49-18l-14-9.24,3.26,14.75c4.95,22.37,10.3,45.25,15.9,68l.48,2,1.82,1.28c6.63,4.62,10.1,6.94,16.88,11.26L717,734.76l1,.59c6.87,4,10.47,6,17.5,9.78l16.44,8.35c2.57,1.24,5.18,2.46,8.6,4l13.17,5.81c5.64,2.41,9.27,3.86,15.64,6.29l12,4.4c6.11,2.15,9.46,3.26,15.81,5.25l11,3.28c8.09,2.32,12.45,3.46,20.74,5.44l8.22,2v-.07l3.39.72c6.69,1.42,10.21,2.1,17.09,3.3l2.19.38v0l1.9.3,4.9.76c7,1.09,11,1.62,18.35,2.47l7.23.83.4-6.14c.27-4,.45-6.8.67-9.9l.39,0c.84,4.07,1.46,7.14,2.45,12.11l.86,4.31,5.16.4c7.72.61,11.7.84,19.38,1.12l1.65.06v0l2.27,0,4.47.09c4.23.08,7.29.12,10.19.12,4.16,0,8.16-.08,14.22-.27h.5c11.25,0,24.29-3.73,28.89-19.54L1002.22,799l8.11-.88c7.56-.82,11.45-1.32,18.94-2.43l4.57-.69,9.06-1.55c11.8-2.12,23.65-4.72,35.27-7.72l10.53-2.84c12.7-3.59,24.81-7.78,36-11.77L1128,770l1.88-7.86a13,13,0,0,0,7.69,2.18c4.43,0,9.92-1.57,17.81-5.07,14.11-6.28,23.86-14.76,28.54-24.71a12,12,0,0,0,7.88,2.61h0c6.27,0,12.94-3.58,17.43-6.58a81,81,0,0,0,30.23-37.28c3.37-8.38,4.87-14.85,1.18-19.2a9.62,9.62,0,0,0-3.38-2.5c3.19-2.07,6-3.93,10-6.68l1.61-1.1,3.87-10.75c1.91-5.28,2.61-9.44-.15-12.58a9.23,9.23,0,0,0-7-2.88c-4.12,0-9.07,2.12-18.93,8.1-12.86,7.78-22.86,15.69-28.72,27.23a11,11,0,0,0-8.21-3.1c-5,0-11.5,2.41-20.3,6.3-14,6.18-28.79,14.47-32.29,29l-10.29,41.33-4.46,1.66c-2.39.89-4.36,1.62-6.21,2.27l12.26-56.92-11.22,3.67c-7.84,2.57-11.71,3.75-19.69,6l-3.87,1.09-10.75,56.63-5,1.29c-3.25.86-5.74,1.49-8.16,2.09l8.5-56ZM721.81,729.19c-3.2-7.41-4.81-11.12-8-18.56-4.47-2.59-6.69-3.92-11.11-6.63,1.62,6.47,2.43,9.72,4.09,16.21-6.72-4.18-10-6.35-16.64-10.84q-8.34-33.06-15.87-66.26,14.55,9.35,29.88,17.82,17.75,38.76,34.94,77.66C732.1,735,728.65,733.1,721.81,729.19Zm52.57,25.92c-2.18-7.93-3.26-11.9-5.43-19.83-.79-2.87-3-4.86-9.12-7.55l-3.05-1.35c2.77,9.65,4.16,14.47,6.94,24.11-7-3.12-10.45-4.76-17.33-8.18Q735.44,707,724.51,671.63c9.37,4.66,14.1,6.86,23.64,11,14.54,6,27.83,13.18,30.86,27.22.83,3.3,1.24,5,2.07,8.24,2.61,10.43-1.66,11-9.13,9a1.05,1.05,0,0,0,0,.19c8.63,4.85,13.3,7.65,15.41,16.09l4.68,18.68C785,759.46,781.42,758.06,774.38,755.11Zm87.69,27.15q-3.86-28-7.68-55.94l-.25-.05Q852,753,850.66,779.75c-8.41-2-12.6-3-20.93-5.36q-10.82-30.15-22.18-60.16l-.23-.07q6.07,28.61,12.14,57.22c-6.46-2-9.67-3-16.07-5.21l-16-68.23q15.46,5.32,31.36,9.71,10,27.65,19.4,55.41l.23.06q-.15-25.2.29-50.39c12.73,3,19.13,4.27,32,6.45q4.13,33.12,8.25,66.24C872.14,784.28,868.78,783.65,862.07,782.26Zm60.57,8.54c-1.31-6.39-2-9.59-3.32-16-5-.41-7.48-.64-12.46-1.17-.46,6.22-.68,9.33-1.1,15.56-7.59-.85-11.38-1.35-18.94-2.51q2.49-32.15,6-64.23,16.67,2.1,33.5,3.15,8.14,33.06,15.35,66.25C934.07,791.59,930.26,791.38,922.64,790.8Zm277.11-104.09,1.4-4.33c4.42-14.7,15-23.08,29.44-31.62,15.9-9.41,19.51-9.22,15.71,1.07L1243,660.7c-6.22,4.14-9.36,6.15-15.68,10l1.24-3.52c2.28-6.44,1.92-6.58-2.65-3.84-4.79,2.87-5.75,4.83-6.91,8.22l-1.65,4.79c-1.57,4.59-.22,4.75,4.26,2.72,16.57-7.49,16.48-.41,11.44,11.8a74.26,74.26,0,0,1-28,33.82c-11.37,7.42-22.31,8.22-15.63-6.1l1.92-5.92c6.53-3.47,9.77-5.27,16.19-9l-1.78,5.19c-1.71,5-2.37,7,2.62,4,3.78-2.25,5.41-4.22,6.51-7.34s1.67-4.7,2.77-7.84c1.78-5,.81-4.55-7.63-1.31C1197.48,701.22,1195.63,699.42,1199.75,686.71ZM1133,747.39q5.35-21,10.7-42c3-12.16,16.51-19.24,28.82-24.54,16.08-6.92,23.82-8.7,20.2,2.85Q1186,705.33,1179.2,727c-3.54,11.66-14.54,19.8-27,25.2C1137.66,758.47,1130.16,758.6,1133,747.39Zm-33.36-39.81c8-2.22,12-3.41,20-6q-6.14,27.84-12.28,55.69c7.12-2.27,10.67-3.48,17.73-6-1.2,4.92-1.81,7.38-3,12.3-11.74,4.07-23.45,8-35.54,11.33ZM974.09,792c-9.75.3-14.63.33-24.39.14l-1-65.56c10.76.21,16.14.18,26.9-.16,20.11-1.6,25.8,7.68,23.9,23.28-.39,6.57-.59,9.85-1,16.43C998.38,780.26,993.55,792.2,974.09,792Zm54-4.76c-7.43,1.08-11.16,1.55-18.62,2.34q2.6-32.91,5.18-65.83c8.23-.87,12.34-1.38,20.55-2.58Q1031.65,754.17,1028.09,787.19Zm51.87-22c-.88,4.82-1.32,7.23-2.19,12q-17.91,4.57-36.27,7.79,4.24-33.15,8.48-66.28c8.17-1.43,12.25-2.23,20.37-4q-4.26,27.36-8.51,54.69C1069.11,767.91,1072.74,767.05,1080,765.2Z" transform="translate(-484.75 -198.49)" fill="#fff"/><path d="M934.12,639.27c.08-1,.18-2,.29-3.12,7.51.68,15.06,1.06,22.61,1.12-.47-12.69-.22-24.82.37-35.69q-8.89,0-17.81-.23c.24-1.17.48-2.36.74-3.56,5.75.32,11.5.48,17.26.54,1-15.66,2.65-28.41,3.81-36l-11.63-5.4q-3,7.89-5.45,16c-34.4-58.27-39.67-95.21-39.67-95.21l-6.41-3.79-.05.06,0-.15-.93,0c-8.84-.35-17-.53-24.27-.53-6,0-9.16.13-9.19.13l-.81,0-.25.77a701.82,701.82,0,0,0-19,71.33c.12,2.66.37,5.3.73,7.91a705.05,705.05,0,0,1,20.27-77.75c1.28,0,4.07-.1,8.29-.1,7,0,14.8.17,23.26.5,1.37,6.52,10.86,46.88,46,104q-2.64,9.62-4.64,19.38-2.39,11.64-4,23.43c-.42,3.09-.79,6.18-1.13,9.28a417.58,417.58,0,0,1-34.7-65.49c-7.73-1-15.28-2.24-22.67-3.61-1.48,22.27-2.4,40.08-2.93,51.43,3.67,4.78,6.69,8.2,8.24,9.88,1.62.37,4.39,1,8.07,1.72-.07-3.48-.16-8.19-.28-13.54l15.3,3.4c2.34,4.45,5,9.2,7.86,14.19,6.44,1,13.55,1.94,21,2.74-.12,1.15-.24,2.31-.35,3.47a479.32,479.32,0,0,1-53.45-8.82c-4.43-4.7-39.69-43.59-38.53-87.93l.06-2-2-.32-8.08-1.28-28.46.71q10.26,3.06,20.68,5.53c0,4.59.27,15.82,3.71,32q5.47,1.95,11,3.74,1.6,5,3.55,9.65-6.18-1.8-12.28-3.88a241.43,241.43,0,0,0,9.34,28.21c1.28.53,2.56,1,3.85,1.56,5.81,2.33,11.7,4.46,17.63,6.45,2.8,3.77,5.41,6.94,7.59,9.45a259.54,259.54,0,0,1-25.16-8.12q3.16,7.14,7.07,14.76l2.19.62a443.33,443.33,0,0,0,72.06,12q17.45,1.45,34.95,1.5c-.27-3.42-.49-6.83-.64-10.19C949.47,639.85,941.79,639.66,934.12,639.27Zm-46.21-40.21c-.17-6.5-.36-13.21-.58-19.32a226.71,226.71,0,0,0,8.75,21.1Zm43.54,45q-14.1-1.23-28.07-3.61c-5-.87-10-1.85-15-3-4.78-1.07-9.61-2.26-14.23-3.62a123.65,123.65,0,0,1-8.29-9.18q-4.12-5-7.84-10.36a152.29,152.29,0,0,1-13-22.47,125.44,125.44,0,0,1-8.53-24.4,104.64,104.64,0,0,1-2.81-25.59l0-1.89,4.07-.54c-1.27,48.65,39.64,90.1,39.64,90.1a470.5,470.5,0,0,0,54.45,9C931.7,640.41,931.57,642.24,931.45,644.08Z" transform="translate(-484.75 -198.49)" fill="#fff"/><path d="M969,428.2c-4.16,1.85-8.38,3.56-12.69,5.08a58.62,58.62,0,0,1-13.15,3.17,390,390,0,0,1-39,18.65c-6.76,2.75-13.6,5.29-20.54,7.54a176.85,176.85,0,0,1-21.27,5.66h0l-.73.12c-1.39,1.28-3.7,2.08-7.54,2.17-9,.22-21.39-1.25-26.72-8.77-3.64-5.12-9.53-11.28-10.48-19-.57-4.57-.34-8,.66-10.61a99.61,99.61,0,0,1,1.18-13.73c.61-4,1.36-8,2.28-12a12.42,12.42,0,0,1-.93-1.86,22.88,22.88,0,0,1-1.47-8.69,28.16,28.16,0,0,1,1.26-8.41l0,.16c2.21-9.8,4.6-19.62,7.39-29.33s5.94-19.31,9.51-28.78A345.36,345.36,0,0,1,863,274.88c2.58-4.36,5.31-8.64,8.11-12.87,1.4-2.12,2.81-4.21,4.27-6.31s3.09-4.21,4.81-6.21A58.12,58.12,0,0,1,892,238.77a53.65,53.65,0,0,1,14.56-6.71,130,130,0,0,1,15.12-3.34c5-.87,10-1.62,15.1-2.21a260.65,260.65,0,0,1,30.47-1.84,237.84,237.84,0,0,1,89.41,17.26q7.07,2.85,14,6.12c2.3,1.09,4.57,2.21,6.84,3.36a19.38,19.38,0,0,1,6.8,5.34,13.37,13.37,0,0,1,2.77,8.7,17.7,17.7,0,0,1-.48,3.47,38,38,0,0,1,7.26,1,29,29,0,0,1,8.82,3.73c.47.3.92.64,1.37,1a15.16,15.16,0,0,1,2.08-1.68l-.32-.31a30.24,30.24,0,0,0-6.53-4.41,41,41,0,0,0-7.14-2.76c-.29-.09-.57-.16-.86-.23,0-.16.06-.3.07-.45a17.32,17.32,0,0,0-1.82-9.5,21.73,21.73,0,0,0-5.93-7.13q-.84-.67-1.68-1.26l-.85-.56-.78-.51-1.23-.8-1.31-.82c-1.72-1.09-3.44-2.14-5.2-3.15l-2.64-1.51-1.32-.74-.17-.09c-.24-.11.23.09.15.06l-.08,0-.31-.18-.65-.37c-3.6-2-7.2-3.94-10.9-5.69a178.44,178.44,0,0,0-46.85-14.89c-4.07-.68-8.17-1.25-12.29-1.67s-8.27-.68-12.42-.83-8.3-.17-12.46,0l-3.12.11-1.56.07-.39,0h-.58l-3,.06-3.06.12q-6.12.25-12.21.8c-2,.18-4.05.38-6.07.6l-5.57.66A236.31,236.31,0,0,0,912.62,221a75.54,75.54,0,0,0-13.17,3.83,50.11,50.11,0,0,0-6.81,3.38,47.72,47.72,0,0,0-6.17,4.41c-1.82,1.52-3.42,3.06-4.89,4.53a11.21,11.21,0,0,0-3.68-.56c-3.26,0-7.64,1-13.8,3.15a259.11,259.11,0,0,0-75.45,42.85c-32.52,26.57-54.9,58.34-66.52,94.43a242.53,242.53,0,0,0-7.67,35.57c-.81,6.21-1.16,11.82-.65,15.6.49,3.55,1.81,6.18,4,7.92q-.85,6.07-1.4,12.23-.82,9.24-.94,18.65c0,.51,0,1,0,1.53a5.41,5.41,0,0,0-.89.5,6.4,6.4,0,0,0-.68.57,8.8,8.8,0,0,0-.93,1,12.73,12.73,0,0,0-1.67,3.4,29.09,29.09,0,0,0-1.25,6.58,80.23,80.23,0,0,0,.11,12.7c.33,4.18.84,8.31,1.46,12.42s1.26,8.19,2,12.25a270.68,270.68,0,0,0,13.64,47.79,257.32,257.32,0,0,0,52.87,83.66,244.81,244.81,0,0,0,29.45,26.46q6.92,2.07,14,4a241.42,241.42,0,0,1-40-33.67,249.73,249.73,0,0,1-52.1-82.07,256.35,256.35,0,0,1-13.35-47c-.75-4-1.37-8-2-12.1S715,497,714.7,492.93a75.78,75.78,0,0,1-.08-11.95,30.4,30.4,0,0,1,.52-3.5c2.31,67.25,37.31,127.07,90.9,166.58a223.8,223.8,0,0,0,40.89,41.72l3.14.72a223,223,0,0,1-41.84-42.44c-52.08-38.39-86.6-96-90.64-160.9a40.69,40.69,0,0,0,2.58,5.26A59.9,59.9,0,0,0,732,502.53a113.51,113.51,0,0,0,20.07,14.08l-3.7-5.26-8.8-8.57c-1.52-1.19-3-2.41-4.46-3.7a55.56,55.56,0,0,1-10.92-13,33,33,0,0,1-4-10.6c0-1.82-.07-3.64-.07-5.47a239.79,239.79,0,0,1,2.13-31.89,19.3,19.3,0,0,0,4.63.51h0c6.56,0,15.33-2.32,26.44-5.27l.25-.06,32.91-16.94-.09.1s9.51-6.13,18.87.64c.45.33.84.59,1.22.82l6.94,4.93,2.27-.07q-.28,3-.38,6.14c-.17.3-.33.6-.48.91l-11.56-8h0c-6.87-4.65-16.13-.86-16.13-.86h0l-36.36,17,0,.06L785.48,426l0,0s8.11-2.88,6.53,2.46c-1.72,5.85-13.63,32.87-20.5,87.2-.71,5.58-4.8,2.42-4.8,2.42h0l-24-21.17-5.26-4.63,28.4,31.87,0,0a13.21,13.21,0,0,0,7.7,3.81l41.91,3.8.16,0s6.81.85,8.42-3.7l3.9-12.78c.42-2-2-2.72-2-2.72h0L796,505.87v-.62L825.18,509a5.57,5.57,0,0,0,5.82-3.88h0l5.13-16.79c1.14-4.8-1.68-6.6-2.44-7l-.15-.07,0,0h0l-30-14.35.18-.42,32.77,11.49v0s2.41.92,3.2-1l1.35-4.41c1,.19,2,.34,3,.47l-6,32.33,3-1.55a13,13,0,0,0,4.91-6.26l0,0,7.23-20.32a5.35,5.35,0,0,0-.39-3.76h0c.84,0,1.57,0,2.51-.1a16.86,16.86,0,0,0,5.44-1.21,9.19,9.19,0,0,0,2.75-1.82,7.14,7.14,0,0,0,1.19-1.5,194.55,194.55,0,0,0,20-4.84c7-2,13.86-4.37,20.66-6.91a391,391,0,0,0,38.9-17.1l.64-.13,1.45-.32c.95-.22,1.88-.46,2.81-.71,1.85-.5,3.66-1,5.46-1.59,3.6-1.13,7.12-2.4,10.59-3.76a183.22,183.22,0,0,0,20.28-9.47q6.34-3.46,12.46-7.26a44.28,44.28,0,0,1,.53-5.19c-1.87,1.24-3.76,2.47-5.66,3.67A188.84,188.84,0,0,1,969,428.2ZM790.86,409.28c-.15-4.2-.25-23.47,8.06-47.44.59-1.69,1.23-3.44,1.93-5.23-14.26-2.13-28.42-2.82-40.5-.75-.33.93-.66,1.87-1,2.81,11.57-1.64,24.83-.93,38.22,1.07-.7,1.78-1.34,3.53-1.93,5.22a142.48,142.48,0,0,0-8.1,44.94c-14.58,2.78-30.11,6.22-44.78,10.38A241.19,241.19,0,0,1,754.92,357a49.09,49.09,0,0,0-9.44,3.44,33.64,33.64,0,0,0-10.3,7.67,35.3,35.3,0,0,1,7-4.55,49.07,49.07,0,0,1,9.44-3.43,239.85,239.85,0,0,0-12,61c-7.4,2.17-14.53,4.53-21.16,7.09l-.12-.73c-1.22-9,3.05-30.21,6.28-42.63a37.31,37.31,0,0,1,1.16-3.62l-.16,0c.31-1.07.59-2,.85-2.84q2.13-6.58,4.66-12.8c.23-.26.44-.53.67-.79l-.55.51a188,188,0,0,1,27.88-47l.09.1A47.26,47.26,0,0,1,778.8,308a188.25,188.25,0,0,0-10.67,16.13,193.12,193.12,0,0,0-13.61,28.25c.75-.18,1.5-.38,2.26-.54A195.23,195.23,0,0,1,771.39,321a183.47,183.47,0,0,1,10.67-16.12,60.31,60.31,0,0,0-19.95,9.94c38.72-45.89,90.44-66.13,103.53-70.7,5.13-1.79,8.92-2.72,11.59-2.86a207.15,207.15,0,0,0-30,13.35l1.35.7a205.46,205.46,0,0,1,26.68-11.38,91.62,91.62,0,0,0-6.26,8.45l-3.22,5c-1.07,1.7-2.13,3.38-3.17,5.1-1.27,2.1-2.5,4.22-3.73,6.35a49,49,0,0,0-16.71-11.36c-5,2.9-10.09,6.15-15.21,9.81a183.46,183.46,0,0,0-22,18.44,183.75,183.75,0,0,1,18.73-15.32c5.11-3.65,10.21-6.9,15.21-9.81a49.45,49.45,0,0,1,17.52,12.2l.12.13c-3.9,6.94-7.5,14-10.86,21.24-1,2.17-2,4.34-3,6.53v0c-1,2.18-1.88,4.38-2.79,6.58h0l-.12.29h0q-1.75,4.28-3.41,8.58c-.42,1.11-.81,2.22-1.21,3.33-1.4-1.1-2.79-2.16-4.18-3.14-1,1.12-2,2.24-2.92,3.37q2.76,2,5.52,4.23c-.4,1.14-.8,2.29-1.19,3.44L830.63,333l-.44,1.41c-.08.2,0-.09.06-.14l0,.09-.06.17-.12.34-.24.69-1,2.82c-2.54,7.32-4.7,14.79-6.54,22.37-5.47-1.28-11.09-2.45-16.73-3.41-.47,1.17-.91,2.33-1.33,3.47,5.81,1,11.59,2.28,17.21,3.64-.62,2.83-1.16,5.68-1.6,8.56q-.47,3-.78,6c-.11,1-.2,2-.27,3l0,.76,0,.38c0,.21,0,.27,0,.36v.26c0,.48,0,.93.08,1.37l-.52,1.87a24.51,24.51,0,0,0-.74,2.39c-.21.79-.39,1.57-.54,2.38a29.55,29.55,0,0,0-.47,4.94,21.86,21.86,0,0,0,.57,5.2,18.38,18.38,0,0,0,.93,2.8C809.82,406,800.59,407.48,790.86,409.28Z" transform="translate(-484.75 -198.49)" fill="#fff"/><path d="M1208.91,461a82.88,82.88,0,0,0,1.27-15.66c0-1.69,0-3.37-.06-5a228.88,228.88,0,0,0-2.79-31.45c-10.79-67.66-49.92-109.82-74.7-130.32-8.19-6.78-13.64-9.67-18.23-9.67-4,0-7,2.16-9.67,5.89-.47.68-1.62,2.38-2.78,4.47-1.61,2.92-3.23,6.35-5,10.2-8,17.13-20.19,43-51.43,71.81l-3,2.76c-15.83,14.46-39.75,36.31-33.88,61.31,3.95,16.85,18.1,26.13,39.84,26.13h.51c45.11-.35,80.16,11,105.65,19.24,14.68,4.74,26.27,8.48,35.07,8.48a22.49,22.49,0,0,0,6.46-.86,34,34,0,0,1-3.14,7.35,54.42,54.42,0,0,1-10.46,12.77c-8.25,7.57-18.07,13.48-28.25,18.51a244.43,244.43,0,0,1-31.75,12.71c-4.12,1.35-8.28,2.59-12.45,3.78a63.09,63.09,0,0,0,7.75-18.5,57.54,57.54,0,0,0,.52-24.6,74.54,74.54,0,0,0-8.65-22.76c-1-1.81-2.13-3.58-3.28-5.32l-2.31-.46c1.36,2.2,2.63,4.45,3.79,6.76a71.83,71.83,0,0,1,7.24,22.32,53.45,53.45,0,0,1-1.63,22.91,58.79,58.79,0,0,1-9.86,18.53l-6-.34-3.61,9.2-.32.83-.89-.1-11.8-1.35c-15.13,3.14-30.43,5.53-45.8,7.34l-3,2.05-4.37,3.45q12.33-1.29,24.6-3.09a442.33,442.33,0,0,1-15.77,74.41c1.29-.29,2.58-.58,3.86-.89a435.06,435.06,0,0,0,16.18-74.15c11.32-1.76,22.59-3.87,33.77-6.41s22.49-5.59,33.53-9.19a248.18,248.18,0,0,0,32.36-13l.49-.25a281.44,281.44,0,0,1-14.11,54.93l4.65-3.49a280.83,280.83,0,0,0,13.91-53.73,117,117,0,0,0,24.41-16.73,61.31,61.31,0,0,0,9.86-11.47c-4.75,27.3-19.07,52.57-40.57,74.15-.16.49-.31,1-.47,1.47,25.09-23.32,41.57-51.37,46.13-81.84-.13,2.91-.43,5.86-.73,8.8-.43,4-1,8-1.62,12s-1.38,8-2.16,11.92a293.8,293.8,0,0,1-13.24,46.59,247.76,247.76,0,0,1-51,81.68,235.77,235.77,0,0,1-43.06,36.14q12.09-3.21,23.81-6.82a242.27,242.27,0,0,0,25.71-23.18,248.36,248.36,0,0,0,30.88-39.56,255.59,255.59,0,0,0,22.38-44.91,241.8,241.8,0,0,0,7.79-23.87,236.46,236.46,0,0,0,5.25-24.54c.66-4.14,1.16-8.24,1.61-12.46s.68-8.31.83-12.51a102.67,102.67,0,0,0-.26-12.74,39.75,39.75,0,0,0-1.16-6.58,15.61,15.61,0,0,0-.85-2.32,22.82,22.82,0,0,0,2.23-4.36A37,37,0,0,0,1208.91,461Zm-146.3-69.67h0l-.14-.07-.86-.57c-1.41-1.12-3.5-3.84-.57-9.11.08-.14.14-.27.21-.4l20.93-37.62a113.82,113.82,0,0,1,24.49,20.6,425.13,425.13,0,0,1-40.5,29.74l.12.19C1065,393,1063.73,392.12,1062.61,391.36ZM1196.91,473l-12.55-4.91a156.44,156.44,0,0,0,.55-33.08c-1.11.07-2.23.12-3.37.17a178.93,178.93,0,0,1-.34,31.68l-36.78-14.39a151.8,151.8,0,0,0-1.66-18.22c-1.12-.07-2.23-.16-3.34-.24a149.54,149.54,0,0,1,1.52,17.1l-47.76-18.68a13.66,13.66,0,0,0-1.62-.82,6.64,6.64,0,0,1-3.4-3.82c-.17-.6-.35-1.18-.53-1.76,0-.2-.06-.33-.06-.33a3.45,3.45,0,0,0-.14-.34l-.22-.67c8.88,1.21,30.81,4.26,55,6a134.67,134.67,0,0,0-9.35-30.58l-2.63.79a135,135,0,0,1,8.49,28.55c-24.34-1.76-46.44-4.84-51.74-5.56a67.68,67.68,0,0,0-7.27-15,487.58,487.58,0,0,0,51.66-12,128.48,128.48,0,0,0-16-25.55c-.9-1.11-1.81-2.19-2.71-3.23-.48.4-1,.8-1.45,1.19l.67.8a128.77,128.77,0,0,1,16,25.55,462.72,462.72,0,0,1-49.3,11.59,63.11,63.11,0,0,0-9.9-11.17c7.51-5,25.53-17.31,41.55-30.65a126.22,126.22,0,0,0-27.51-22.65L1108,297.26c.18.15,15.25,13.17,31.44,34.71-8.21,10.15-18.52,20-28.78,28.85.73.76,1.46,1.54,2.2,2.35,10.68-9.08,21.51-19.38,30.07-30a297.66,297.66,0,0,0-34-37.59l11.26-20.22a62.57,62.57,0,0,1,9.5,6.75,212.79,212.79,0,0,1,24.76,24.2c-2.22,6.91-6.29,14.05-11.53,21.12.75,1,1.5,1.93,2.24,2.9a84.31,84.31,0,0,0,11.92-20.93,207.15,207.15,0,0,1,30.77,49.38c-1.2,6.63-6.87,12.63-15,18,.4.89.81,1.78,1.2,2.69a58.06,58.06,0,0,0,10.42-7.84,28.19,28.19,0,0,0,5.5-7.92,209.48,209.48,0,0,1,14.81,62.17c-3.94,2-9.81,3.24-16.87,4,.06.51.15,1,.2,1.54a72.94,72.94,0,0,0,16.86-2.93c.4,5.49.62,11.12.62,16.91C1205.53,462.72,1202.27,470.18,1196.91,473Z" transform="translate(-484.75 -198.49)" fill="#fff"/><path d="M1100.64,276.52a27.7,27.7,0,0,0-7.54-4,38.54,38.54,0,0,0-7.09-1.69,25.85,25.85,0,0,1-1.19,2.85,48.31,48.31,0,0,1-9.53,12.64,101.82,101.82,0,0,1-25.07,17.73,102.89,102.89,0,0,1-10.36,4.59,148.06,148.06,0,0,0,20.22,9.41,75.08,75.08,0,0,0,13.19,3.55c12.72-17.15,19.7-32,26-41.13h0s.94-1.45,2.33-3.16C1101.27,277.06,1101,276.77,1100.64,276.52Z" transform="translate(-484.75 -198.49)" fill="#fff"/></svg>