<svg width="37" height="11" viewBox="0 0 37 11" fill="none" xmlns="http://www.w3.org/2000/svg">
<path d="M16.6649 2.40283L12.8206 10.7766H13.5051L17.009 3.16939L16.6649 2.40283Z" fill="white"/>
<path d="M18.3926 0.364316C18.3649 0.286894 18.3118 0.219444 18.2409 0.171379C18.1699 0.123313 18.0845 0.0970278 17.9967 0.0961914C17.9338 0.0968553 17.8719 0.111191 17.816 0.138051C17.7601 0.164911 17.7118 0.20355 17.6748 0.250879L21.804 9.43244L22.4145 10.7765H23.1138L18.3926 0.364316Z" fill="white"/>
<path d="M29.2596 7.11901L28.1052 5.34182L24.7086 0.178693C24.6387 0.123079 24.549 0.0936654 24.457 0.0961934C24.4017 0.0943541 24.3465 0.102839 24.2948 0.121146C24.243 0.139454 24.1957 0.167212 24.1557 0.202782C24.1157 0.238352 24.0838 0.281012 24.0618 0.32824C24.0398 0.375469 24.0283 0.426309 24.0278 0.477756V10.7903H24.6383V1.16869L29.2522 8.24994L29.6222 7.67932L29.2596 7.11901Z" fill="#E8C458"/>
<path d="M34.0401 0.09622C33.9664 0.0925901 33.8931 0.107623 33.8279 0.139713C33.7628 0.171803 33.7082 0.219742 33.6701 0.278407L30.3401 5.49997L30.7101 6.06028L33.8662 1.16872V10.7937H34.4767V0.48122C34.4773 0.428733 34.4663 0.376692 34.4443 0.32835C34.4222 0.280009 34.3897 0.236407 34.3487 0.200272C34.3078 0.164136 34.2592 0.136245 34.2061 0.118341C34.153 0.100437 34.0965 0.0929066 34.0401 0.09622Z" fill="#E8C458"/>
<path d="M6.45287 5.52406V4.95687C4.71017 4.8125 3.22277 4.53406 3.22277 3.03875C3.22277 1.6225 4.88407 0.718436 7.47407 0.718436C8.80361 0.71423 10.1198 0.964648 11.3406 1.45406L11.5552 0.931561C10.2663 0.415706 8.87747 0.150163 7.47407 0.151248C4.54737 0.151248 2.61597 1.28219 2.61597 3.03875C2.61597 5.00156 4.44007 5.32812 6.45287 5.52406Z" fill="white"/>
<path d="M8.27694 5.12878V5.71316C10.0677 5.94347 11.6069 6.40066 11.6069 7.94753C11.6069 9.32253 9.80874 10.3538 7.05224 10.3538C5.57199 10.3782 4.10886 10.0567 2.79724 9.41878L2.52344 9.94128C3.91942 10.5968 5.46606 10.9272 7.03004 10.9038C10.1528 10.9038 12.21 9.67316 12.21 7.94753C12.21 5.89191 10.3156 5.36941 8.27694 5.12878Z" fill="white"/>
</svg>
